<?xml version="1.0" encoding="utf-8"?>
<!-- Generator: Adobe Illustrator 19.0.0, SVG Export Plug-In . SVG Version: 6.00 Build 0)  -->
<svg version="1.1" id="Layer_1" xmlns="http://www.w3.org/2000/svg" xmlns:xlink="http://www.w3.org/1999/xlink" x="0px" y="0px"
	 viewBox="0 0 96 96" style="enable-background:new 0 0 96 96;" xml:space="preserve">
<style type="text/css">
	.st0{fill:#333333;}
</style>
<g id="XMLID_2_">
	<path id="XMLID_6_" class="st0" d="M58.6,43.8c0-4.1-1.4-7.6-4.3-10.5c-2.9-2.9-6.4-4.3-10.5-4.3s-7.6,1.4-10.5,4.3
		c-2.9,2.9-4.3,6.4-4.3,10.5s1.4,7.6,4.3,10.5c2.9,2.9,6.4,4.3,10.5,4.3s7.6-1.4,10.5-4.3C57.1,51.3,58.6,47.8,58.6,43.8z
		 M75.5,71.3c0,1.1-0.4,2.1-1.3,3s-1.8,1.3-3,1.3c-1.2,0-2.2-0.4-3-1.3L57,62.9C53,65.7,48.6,67,43.8,67c-3.2,0-6.2-0.6-9-1.8
		c-2.9-1.2-5.4-2.9-7.4-5s-3.7-4.6-5-7.4c-1.2-2.9-1.8-5.9-1.8-9s0.6-6.2,1.8-9c1.2-2.9,2.9-5.4,5-7.4s4.6-3.7,7.4-5
		c2.9-1.2,5.9-1.8,9-1.8s6.2,0.6,9,1.8c2.9,1.2,5.4,2.9,7.4,5s3.7,4.6,5,7.4c1.2,2.9,1.8,5.9,1.8,9c0,4.8-1.4,9.2-4.1,13.2
		l11.3,11.3C75.1,69.1,75.5,70.1,75.5,71.3z"/>
</g>
</svg>
